<?xml version="1.0" encoding="UTF-8" standalone="no"?>
<svg
   xmlns:dc="http://purl.org/dc/elements/1.1/"
   xmlns:cc="http://creativecommons.org/ns#"
   xmlns:rdf="http://www.w3.org/1999/02/22-rdf-syntax-ns#"
   xmlns:svg="http://www.w3.org/2000/svg"
   xmlns="http://www.w3.org/2000/svg"
   width="509.38705mm"
   height="225.98402mm"
   viewBox="0 0 509.38705 225.98402"
   version="1.1"
   id="svg8">
  <defs
     id="defs2" />
  <metadata
     id="metadata5">
    <rdf:RDF>
      <cc:Work
         rdf:about="">
        <dc:format>image/svg+xml</dc:format>
        <dc:type
           rdf:resource="http://purl.org/dc/dcmitype/StillImage" />
        <dc:title></dc:title>
      </cc:Work>
    </rdf:RDF>
  </metadata>
  <g
     id="layer1"
     transform="translate(178.3969,-334.80986)">
    <g
       id="g873"
       transform="translate(0,303.46096)">
      <path
         id="rect847"
         style="mix-blend-mode:normal;fill:#c0aaea;fill-opacity:1;stroke:none;stroke-width:1.5875;stroke-linecap:square;stroke-linejoin:round"
         d="m -101.95007,31.348898 h 72.571423 v 72.571422 h -72.571423 z" />
      <path
         id="rect849"
         style="fill:#e5dcf7;fill-opacity:1;stroke:none;stroke-width:1.5875;stroke-linecap:square;stroke-linejoin:round"
         d="m -178.3969,31.348898 h 72.57143 v 72.571422 h -72.57143 z" />
      <path
         id="rect851"
         style="mix-blend-mode:normal;fill:#c0aaea;fill-opacity:1;stroke:none;stroke-width:1.5875;stroke-linecap:square;stroke-linejoin:round"
         d="m -178.3969,108.45605 h 72.57143 v 72.57142 h -72.57143 z" />
      <path
         id="rect853"
         style="mix-blend-mode:normal;fill:#c0aaea;fill-opacity:1;stroke:none;stroke-width:1.5875;stroke-linecap:square;stroke-linejoin:round"
         d="m -101.85672,108.45605 h 72.571426 v 72.57142 h -72.571426 z" />
      <path
         id="rect861"
         style="mix-blend-mode:normal;fill:#c0aaea;fill-opacity:1;stroke:none;stroke-width:1.5875;stroke-linecap:square;stroke-linejoin:round"
         d="m -25.409885,108.45605 h 72.571426 v 72.57142 h -72.571426 z" />
      <path
         id="rect863"
         style="fill:#e5dcf7;fill-opacity:1;stroke:none;stroke-width:1.5875;stroke-linecap:square;stroke-linejoin:round"
         d="m -25.409885,184.76149 h 72.571426 v 72.57143 h -72.571426 z" />
      <g
         aria-label="F"
         id="text877"
         style="font-weight:800;font-size:59.6834px;line-height:1.25;font-family:Inter;-inkscape-font-specification:'Inter Ultra-Bold';fill:#ffffff;stroke:none;stroke-width:20.6596;stroke-linecap:square;stroke-linejoin:round">
        <path
           d="m -146.67697,132.98413 v 9.19125 h 18.44217 v 9.13156 h -18.44217 v 14.32401 h -11.81731 v -41.77838 h 32.76618 v 9.13156 z"
           style="font-style:normal;font-variant:normal;font-weight:800;font-stretch:normal;font-family:Montserrat;-inkscape-font-specification:'Montserrat Ultra-Bold';fill:#ffffff;stroke-width:20.6596"
           id="path1560" />
      </g>
      <g
         aria-label="C"
         id="text881"
         style="font-weight:800;font-size:59.6834px;line-height:1.25;font-family:Inter;-inkscape-font-specification:'Inter Ultra-Bold';fill:#ffffff;stroke:none;stroke-width:20.6596;stroke-linecap:square;stroke-linejoin:round">
        <path
           d="m -63.064303,166.46652 q -6.565174,0 -11.817313,-2.74544 -5.192456,-2.80512 -8.176626,-7.75884 -2.98417,-4.95372 -2.98417,-11.22048 0,-6.26676 2.98417,-11.22048 2.98417,-4.95372 8.176626,-7.69916 5.252139,-2.80512 11.817313,-2.80512 5.729606,0 10.325228,2.02924 4.595621,2.02924 7.639475,5.84897 l -7.520109,6.80391 q -4.058471,-4.89404 -9.84776,-4.89404 -3.401954,0 -6.087707,1.49209 -2.62607,1.49208 -4.118155,4.23752 -1.432401,2.68575 -1.432401,6.20707 0,3.52132 1.432401,6.26676 1.492085,2.68575 4.118155,4.17784 2.685753,1.49208 6.087707,1.49208 5.789289,0 9.84776,-4.89404 l 7.520109,6.80391 q -3.043854,3.81974 -7.639475,5.84897 -4.595622,2.02924 -10.325228,2.02924 z"
           style="font-style:normal;font-variant:normal;font-weight:800;font-stretch:normal;font-family:Montserrat;-inkscape-font-specification:'Montserrat Ultra-Bold';fill:#ffffff;stroke-width:20.6596"
           id="path1563" />
      </g>
      <g
         id="text885"
         style="font-weight:800;font-size:59.6834px;line-height:1.25;font-family:Inter;-inkscape-font-specification:'Inter Ultra-Bold';fill:#ffffff;stroke:none;stroke-width:20.6596;stroke-linecap:square;stroke-linejoin:round" />
      <g
         aria-label="D"
         id="text889"
         style="font-weight:800;font-size:59.6834px;line-height:1.25;font-family:Inter;-inkscape-font-specification:'Inter Ultra-Bold';fill:#ffffff;stroke:none;stroke-width:20.6596;stroke-linecap:square;stroke-linejoin:round">
        <path
           d="M -10.669879,123.85257 H 9.0853258 q 6.8635912,0 12.1754132,2.56639 5.311823,2.56638 8.236309,7.28137 2.924487,4.71499 2.924487,11.04143 0,6.32644 -2.924487,11.04143 -2.924486,4.71499 -8.236309,7.28137 -5.311822,2.56639 -12.1754132,2.56639 H -10.669879 Z m 19.2777376,32.3484 q 5.3715064,0 8.5944094,-3.04385 3.282587,-3.04385 3.282587,-8.41536 0,-5.3715 -3.282587,-8.41536 -3.222903,-3.04385 -8.5944094,-3.04385 H 1.1474337 v 22.91842 z"
           style="font-style:normal;font-variant:normal;font-weight:800;font-stretch:normal;font-family:Montserrat;-inkscape-font-specification:'Montserrat Ultra-Bold';fill:#ffffff;stroke-width:20.6596"
           id="path1567" />
      </g>
    </g>
    <g
       aria-label="Ciudadania
y Desarrollo"
       id="text893"
       style="font-style:normal;font-variant:normal;font-weight:800;font-stretch:normal;font-size:43.4875px;line-height:1.05;font-family:Montserrat;-inkscape-font-specification:'Montserrat Ultra-Bold';fill:#541ec5;fill-opacity:1;stroke:none;stroke-width:15.0534;stroke-linecap:square;stroke-linejoin:round">
      <path
         d="m 84.807978,479.39316 q -4.609675,0 -8.3496,-2.00043 -3.696437,-2.04391 -5.827325,-5.60988 -2.0874,-3.56598 -2.0874,-8.04519 0,-4.47921 2.130888,-8.04519 2.130887,-3.56597 5.827325,-5.5664 3.739925,-2.04391 8.349599,-2.04391 3.739925,0 6.827538,1.30462 3.087612,1.30463 5.2185,3.78342 l -3.65295,3.43551 q -3.30505,-3.56598 -8.132163,-3.56598 -3.1311,0 -5.609887,1.3916 -2.478787,1.34812 -3.870387,3.78342 -1.3916,2.4353 -1.3916,5.52291 0,3.08761 1.3916,5.52291 1.3916,2.4353 3.870387,3.8269 2.478787,1.34811 5.609887,1.34811 4.827113,0 8.132163,-3.60946 l 3.65295,3.479 q -2.130888,2.47879 -5.261988,3.78341 -3.087612,1.30463 -6.827537,1.30463 z"
         style="font-style:normal;font-variant:normal;font-weight:600;font-stretch:normal;font-family:Montserrat;-inkscape-font-specification:'Montserrat Semi-Bold';fill:#541ec5;fill-opacity:1;stroke-width:15.0534"
         id="path1570" />
      <path
         d="m 101.81156,455.73596 h 5.43594 v 23.22232 h -5.43594 z m 2.73971,-3.8269 q -1.47857,0 -2.47879,-0.91324 -1.00021,-0.95672 -1.00021,-2.34832 0,-1.3916 1.00021,-2.30484 1.00022,-0.95673 2.47879,-0.95673 1.47858,0 2.47879,0.91324 1.00021,0.86975 1.00021,2.21786 0,1.43509 -1.00021,2.4353 -0.95673,0.95673 -2.47879,0.95673 z"
         style="font-style:normal;font-variant:normal;font-weight:600;font-stretch:normal;font-family:Montserrat;-inkscape-font-specification:'Montserrat Semi-Bold';fill:#541ec5;fill-opacity:1;stroke-width:15.0534"
         id="path1572" />
      <path
         d="m 136.86247,455.73596 v 23.22232 h -5.17502 v -2.95715 q -1.30462,1.56555 -3.26156,2.4353 -1.95694,0.82626 -4.21829,0.82626 -4.65316,0 -7.34938,-2.56576 -2.65274,-2.60925 -2.65274,-7.69728 v -13.26369 h 5.43594 v 12.5244 q 0,3.1311 1.3916,4.69665 1.43508,1.52206 4.04433,1.52206 2.91367,0 4.60968,-1.78299 1.7395,-1.82647 1.7395,-5.2185 v -11.74162 z"
         style="font-style:normal;font-variant:normal;font-weight:600;font-stretch:normal;font-family:Montserrat;-inkscape-font-specification:'Montserrat Semi-Bold';fill:#541ec5;fill-opacity:1;stroke-width:15.0534"
         id="path1574" />
      <path
         d="m 166.73837,446.69056 v 32.26772 h -5.2185 v -3.00063 q -1.34812,1.65252 -3.34854,2.47878 -1.95694,0.82626 -4.34875,0.82626 -3.34854,0 -6.04476,-1.47857 -2.65274,-1.47857 -4.1748,-4.1748 -1.52207,-2.73971 -1.52207,-6.2622 0,-3.52249 1.52207,-6.21871 1.52206,-2.69623 4.1748,-4.1748 2.69622,-1.47858 6.04476,-1.47858 2.30484,0 4.21829,0.78278 1.91345,0.78277 3.26156,2.34832 v -11.91557 z m -12.26348,27.91897 q 1.95694,0 3.52249,-0.86975 1.56555,-0.91323 2.47879,-2.56576 0.91323,-1.65252 0.91323,-3.8269 0,-2.17437 -0.91323,-3.8269 -0.91324,-1.65252 -2.47879,-2.52227 -1.56555,-0.91324 -3.52249,-0.91324 -1.95694,0 -3.52249,0.91324 -1.56555,0.86975 -2.47878,2.52227 -0.91324,1.65253 -0.91324,3.8269 0,2.17438 0.91324,3.8269 0.91323,1.65253 2.47878,2.56576 1.56555,0.86975 3.52249,0.86975 z"
         style="font-style:normal;font-variant:normal;font-weight:600;font-stretch:normal;font-family:Montserrat;-inkscape-font-specification:'Montserrat Semi-Bold';fill:#541ec5;fill-opacity:1;stroke-width:15.0534"
         id="path1576" />
      <path
         d="m 182.74169,455.47503 q 5.13153,0 7.82775,2.47879 2.73971,2.4353 2.73971,7.39288 v 13.61158 h -5.13152 v -2.82668 q -1.00021,1.52206 -2.87017,2.34832 -1.82648,0.78277 -4.43573,0.78277 -2.60925,0 -4.56619,-0.86975 -1.95693,-0.91323 -3.04412,-2.47878 -1.0437,-1.60904 -1.0437,-3.60946 0,-3.1311 2.30484,-5.00107 2.34832,-1.91345 7.34938,-1.91345 h 6.00128 v -0.3479 q 0,-2.4353 -1.47858,-3.73992 -1.43508,-1.30463 -4.30526,-1.30463 -1.95694,0 -3.87039,0.60883 -1.86996,0.60882 -3.17458,1.69601 l -2.13089,-3.95736 q 1.82647,-1.3916 4.39224,-2.13089 2.56576,-0.73929 5.43593,-0.73929 z m -0.73928,19.8303 q 2.04391,0 3.60946,-0.91323 1.60904,-0.95673 2.26135,-2.69623 v -2.69622 h -5.60989 q -4.69665,0 -4.69665,3.08761 0,1.47857 1.17416,2.34832 1.17417,0.86975 3.26157,0.86975 z"
         style="font-style:normal;font-variant:normal;font-weight:600;font-stretch:normal;font-family:Montserrat;-inkscape-font-specification:'Montserrat Semi-Bold';fill:#541ec5;fill-opacity:1;stroke-width:15.0534"
         id="path1578" />
      <path
         d="m 223.22846,446.69056 v 32.26772 h -5.2185 v -3.00063 q -1.34812,1.65252 -3.34854,2.47878 -1.95694,0.82626 -4.34875,0.82626 -3.34854,0 -6.04476,-1.47857 -2.65274,-1.47857 -4.1748,-4.1748 -1.52207,-2.73971 -1.52207,-6.2622 0,-3.52249 1.52207,-6.21871 1.52206,-2.69623 4.1748,-4.1748 2.69622,-1.47858 6.04476,-1.47858 2.30484,0 4.21829,0.78278 1.91345,0.78277 3.26156,2.34832 v -11.91557 z m -12.26348,27.91897 q 1.95694,0 3.52249,-0.86975 1.56555,-0.91323 2.47879,-2.56576 0.91323,-1.65252 0.91323,-3.8269 0,-2.17437 -0.91323,-3.8269 -0.91324,-1.65252 -2.47879,-2.52227 -1.56555,-0.91324 -3.52249,-0.91324 -1.95694,0 -3.52249,0.91324 -1.56555,0.86975 -2.47878,2.52227 -0.91324,1.65253 -0.91324,3.8269 0,2.17438 0.91324,3.8269 0.91323,1.65253 2.47878,2.56576 1.56555,0.86975 3.52249,0.86975 z"
         style="font-style:normal;font-variant:normal;font-weight:600;font-stretch:normal;font-family:Montserrat;-inkscape-font-specification:'Montserrat Semi-Bold';fill:#541ec5;fill-opacity:1;stroke-width:15.0534"
         id="path1580" />
      <path
         d="m 239.23178,455.47503 q 5.13153,0 7.82775,2.47879 2.73971,2.4353 2.73971,7.39288 v 13.61158 h -5.13152 v -2.82668 q -1.00021,1.52206 -2.87018,2.34832 -1.82647,0.78277 -4.43572,0.78277 -2.60925,0 -4.56619,-0.86975 -1.95694,-0.91323 -3.04412,-2.47878 -1.0437,-1.60904 -1.0437,-3.60946 0,-3.1311 2.30483,-5.00107 2.34833,-1.91345 7.34939,-1.91345 h 6.00128 v -0.3479 q 0,-2.4353 -1.47858,-3.73992 -1.43509,-1.30463 -4.30526,-1.30463 -1.95694,0 -3.87039,0.60883 -1.86996,0.60882 -3.17459,1.69601 l -2.13088,-3.95736 q 1.82647,-1.3916 4.39223,-2.13089 2.56577,-0.73929 5.43594,-0.73929 z m -0.73929,19.8303 q 2.04392,0 3.60947,-0.91323 1.60903,-0.95673 2.26135,-2.69623 v -2.69622 h -5.60989 q -4.69665,0 -4.69665,3.08761 0,1.47857 1.17416,2.34832 1.17416,0.86975 3.26156,0.86975 z"
         style="font-style:normal;font-variant:normal;font-weight:600;font-stretch:normal;font-family:Montserrat;-inkscape-font-specification:'Montserrat Semi-Bold';fill:#541ec5;fill-opacity:1;stroke-width:15.0534"
         id="path1582" />
      <path
         d="m 269.9339,455.47503 q 4.39223,0 7.04497,2.56577 2.65274,2.56576 2.65274,7.61031 v 13.30717 h -5.43594 v -12.61137 q 0,-3.04413 -1.43509,-4.56619 -1.43508,-1.56555 -4.08782,-1.56555 -3.00064,0 -4.74014,1.82648 -1.7395,1.78298 -1.7395,5.17501 v 11.74162 h -5.43594 v -23.22232 h 5.17502 v 3.00064 q 1.34811,-1.60904 3.39202,-2.4353 2.04391,-0.82627 4.60968,-0.82627 z"
         style="font-style:normal;font-variant:normal;font-weight:600;font-stretch:normal;font-family:Montserrat;-inkscape-font-specification:'Montserrat Semi-Bold';fill:#541ec5;fill-opacity:1;stroke-width:15.0534"
         id="path1584" />
      <path
         d="m 286.54609,455.73596 h 5.43594 v 23.22232 h -5.43594 z m 2.73972,-3.8269 q -1.47858,0 -2.47879,-0.91324 -1.00021,-0.95672 -1.00021,-2.34832 0,-1.3916 1.00021,-2.30484 1.00021,-0.95673 2.47879,-0.95673 1.47857,0 2.47878,0.91324 1.00022,0.86975 1.00022,2.21786 0,1.43509 -1.00022,2.4353 -0.95672,0.95673 -2.47878,0.95673 z"
         style="font-style:normal;font-variant:normal;font-weight:600;font-stretch:normal;font-family:Montserrat;-inkscape-font-specification:'Montserrat Semi-Bold';fill:#541ec5;fill-opacity:1;stroke-width:15.0534"
         id="path1586" />
      <path
         d="m 307.98541,455.47503 q 5.13153,0 7.82775,2.47879 2.73972,2.4353 2.73972,7.39288 v 13.61158 h -5.13153 v -2.82668 q -1.00021,1.52206 -2.87017,2.34832 -1.82648,0.78277 -4.43573,0.78277 -2.60925,0 -4.56619,-0.86975 -1.95693,-0.91323 -3.04412,-2.47878 -1.0437,-1.60904 -1.0437,-3.60946 0,-3.1311 2.30484,-5.00107 2.34832,-1.91345 7.34938,-1.91345 h 6.00128 v -0.3479 q 0,-2.4353 -1.47858,-3.73992 -1.43508,-1.30463 -4.30526,-1.30463 -1.95694,0 -3.87039,0.60883 -1.86996,0.60882 -3.17458,1.69601 l -2.13089,-3.95736 q 1.82647,-1.3916 4.39224,-2.13089 2.56576,-0.73929 5.43593,-0.73929 z m -0.73928,19.8303 q 2.04391,0 3.60946,-0.91323 1.60904,-0.95673 2.26135,-2.69623 v -2.69622 h -5.60989 q -4.69665,0 -4.69665,3.08761 0,1.47857 1.17416,2.34832 1.17417,0.86975 3.26157,0.86975 z"
         style="font-style:normal;font-variant:normal;font-weight:600;font-stretch:normal;font-family:Montserrat;-inkscape-font-specification:'Montserrat Semi-Bold';fill:#541ec5;fill-opacity:1;stroke-width:15.0534"
         id="path1588" />
      <path
         d="m 91.939928,501.39783 -10.871875,25.09229 q -1.522062,3.78341 -3.696437,5.30547 -2.174375,1.56555 -5.261988,1.56555 -1.7395,0 -3.435512,-0.56534 -1.696013,-0.56533 -2.7832,-1.56555 l 2.174375,-4.00085 q 0.782775,0.73929 1.826475,1.17417 1.087187,0.43487 2.174375,0.43487 1.435087,0 2.348325,-0.73929 0.956725,-0.73928 1.7395,-2.47878 l 0.391387,-0.91324 -10.132587,-23.3093 h 5.653375 l 7.3059,17.17756 7.349387,-17.17756 z"
         style="font-style:normal;font-variant:normal;font-weight:600;font-stretch:normal;font-family:Montserrat;-inkscape-font-specification:'Montserrat Semi-Bold';fill:#541ec5;fill-opacity:1;stroke-width:15.0534"
         id="path1590" />
      <path
         d="m 107.85627,494.17891 h 13.30718 q 4.8706,0 8.65401,1.91345 3.78341,1.86996 5.87081,5.34896 2.0874,3.43551 2.0874,7.95821 0,4.5227 -2.0874,8.0017 -2.0874,3.43551 -5.87081,5.34896 -3.78341,1.86996 -8.65401,1.86996 h -13.30718 z m 13.04625,25.65762 q 3.34854,0 5.87081,-1.26114 2.56577,-1.30462 3.91388,-3.65295 1.3916,-2.39181 1.3916,-5.52291 0,-3.1311 -1.3916,-5.47943 -1.34811,-2.39181 -3.91388,-3.65294 -2.52227,-1.30463 -5.87081,-1.30463 h -7.39287 v 20.874 z"
         style="font-style:normal;font-variant:normal;font-weight:600;font-stretch:normal;font-family:Montserrat;-inkscape-font-specification:'Montserrat Semi-Bold';fill:#541ec5;fill-opacity:1;stroke-width:15.0534"
         id="path1592" />
      <path
         d="m 165.08575,513.13945 q 0,0.56534 -0.087,1.60904 h -18.22126 q 0.47836,2.56576 2.47879,4.08783 2.04391,1.47857 5.04455,1.47857 3.8269,0 6.30569,-2.52227 l 2.91366,3.34853 q -1.56555,1.86997 -3.95736,2.82669 -2.39182,0.95673 -5.39245,0.95673 -3.8269,0 -6.74057,-1.52207 -2.91366,-1.52206 -4.5227,-4.21828 -1.56555,-2.73972 -1.56555,-6.17523 0,-3.39202 1.52207,-6.08825 1.56555,-2.73971 4.30526,-4.26177 2.73971,-1.52206 6.17522,-1.52206 3.39203,0 6.04477,1.52206 2.69622,1.47857 4.1748,4.21828 1.52206,2.69623 1.52206,6.2622 z m -11.74163,-7.6538 q -2.60925,0 -4.43572,1.56555 -1.78299,1.52207 -2.17438,4.08783 h 13.17672 q -0.3479,-2.52228 -2.13089,-4.08783 -1.78299,-1.56555 -4.43573,-1.56555 z"
         style="font-style:normal;font-variant:normal;font-weight:600;font-stretch:normal;font-family:Montserrat;-inkscape-font-specification:'Montserrat Semi-Bold';fill:#541ec5;fill-opacity:1;stroke-width:15.0534"
         id="path1594" />
      <path
         d="m 177.47968,524.92457 q -2.82669,0 -5.52291,-0.73929 -2.69623,-0.73929 -4.30527,-1.86996 l 2.0874,-4.13132 q 1.56555,1.0437 3.73993,1.69602 2.21786,0.60882 4.34875,0.60882 4.8706,0 4.8706,-2.56576 0,-1.21765 -1.26114,-1.69601 -1.21765,-0.47837 -3.95736,-0.91324 -2.87018,-0.43488 -4.69665,-1.00021 -1.78299,-0.56534 -3.1311,-1.95694 -1.30463,-1.43509 -1.30463,-3.95736 0,-3.30505 2.73972,-5.26199 2.7832,-2.00042 7.47985,-2.00042 2.39181,0 4.78362,0.56533 2.39181,0.52185 3.91388,1.43509 l -2.0874,4.13131 q -2.95715,-1.7395 -6.65359,-1.7395 -2.39181,0 -3.65295,0.73929 -1.21765,0.6958 -1.21765,1.86996 0,1.30463 1.30462,1.86996 1.34812,0.52185 4.13132,1.00022 2.7832,0.43487 4.56618,1.00021 1.78299,0.56534 3.04413,1.91345 1.30462,1.34811 1.30462,3.8269 0,3.26156 -2.82668,5.2185 -2.82669,1.95694 -7.69729,1.95694 z"
         style="font-style:normal;font-variant:normal;font-weight:600;font-stretch:normal;font-family:Montserrat;-inkscape-font-specification:'Montserrat Semi-Bold';fill:#541ec5;fill-opacity:1;stroke-width:15.0534"
         id="path1596" />
      <path
         d="m 201.57173,501.13691 q 5.13152,0 7.82774,2.47878 2.73972,2.4353 2.73972,7.39288 v 13.61158 h -5.13153 v -2.82668 q -1.00021,1.52206 -2.87017,2.34832 -1.82648,0.78278 -4.43573,0.78278 -2.60925,0 -4.56618,-0.86975 -1.95694,-0.91324 -3.04413,-2.47879 -1.0437,-1.60904 -1.0437,-3.60946 0,-3.1311 2.30484,-5.00107 2.34832,-1.91345 7.34939,-1.91345 h 6.00127 v -0.3479 q 0,-2.4353 -1.47858,-3.73992 -1.43508,-1.30463 -4.30526,-1.30463 -1.95693,0 -3.87038,0.60883 -1.86997,0.60882 -3.17459,1.69601 l -2.13089,-3.95736 q 1.82648,-1.3916 4.39224,-2.13089 2.56576,-0.73928 5.43594,-0.73928 z m -0.73929,19.83029 q 2.04391,0 3.60946,-0.91323 1.60904,-0.95673 2.26135,-2.69623 v -2.69622 h -5.60989 q -4.69665,0 -4.69665,3.08761 0,1.47857 1.17417,2.34832 1.17416,0.86975 3.26156,0.86975 z"
         style="font-style:normal;font-variant:normal;font-weight:600;font-stretch:normal;font-family:Montserrat;-inkscape-font-specification:'Montserrat Semi-Bold';fill:#541ec5;fill-opacity:1;stroke-width:15.0534"
         id="path1598" />
      <path
         d="m 224.27213,504.78985 q 2.34833,-3.65294 8.26263,-3.65294 v 5.17501 q -0.6958,-0.13047 -1.26114,-0.13047 -3.17459,0 -4.95758,1.86997 -1.78298,1.82647 -1.78298,5.30547 v 11.26326 h -5.43594 v -23.22232 h 5.17501 z"
         style="font-style:normal;font-variant:normal;font-weight:600;font-stretch:normal;font-family:Montserrat;-inkscape-font-specification:'Montserrat Semi-Bold';fill:#541ec5;fill-opacity:1;stroke-width:15.0534"
         id="path1600" />
      <path
         d="m 242.31931,504.78985 q 2.34833,-3.65294 8.26263,-3.65294 v 5.17501 q -0.6958,-0.13047 -1.26114,-0.13047 -3.17459,0 -4.95758,1.86997 -1.78298,1.82647 -1.78298,5.30547 v 11.26326 h -5.43594 v -23.22232 h 5.17501 z"
         style="font-style:normal;font-variant:normal;font-weight:600;font-stretch:normal;font-family:Montserrat;-inkscape-font-specification:'Montserrat Semi-Bold';fill:#541ec5;fill-opacity:1;stroke-width:15.0534"
         id="path1602" />
      <path
         d="m 265.41109,524.92457 q -3.52249,0 -6.34918,-1.52207 -2.82669,-1.52206 -4.43572,-4.21828 -1.56555,-2.73972 -1.56555,-6.17523 0,-3.43551 1.56555,-6.13174 1.60903,-2.69622 4.43572,-4.21828 2.82669,-1.52206 6.34918,-1.52206 3.56597,0 6.39266,1.52206 2.82669,1.52206 4.39224,4.21828 1.60903,2.69623 1.60903,6.13174 0,3.43551 -1.60903,6.17523 -1.56555,2.69622 -4.39224,4.21828 -2.82669,1.52207 -6.39266,1.52207 z m 0,-4.65317 q 3.00063,0 4.95757,-2.00042 1.95694,-2.00043 1.95694,-5.26199 0,-3.26156 -1.95694,-5.26199 -1.95694,-2.00042 -4.95757,-2.00042 -3.00064,0 -4.95758,2.00042 -1.91345,2.00043 -1.91345,5.26199 0,3.26156 1.91345,5.26199 1.95694,2.00042 4.95758,2.00042 z"
         style="font-style:normal;font-variant:normal;font-weight:600;font-stretch:normal;font-family:Montserrat;-inkscape-font-specification:'Montserrat Semi-Bold';fill:#541ec5;fill-opacity:1;stroke-width:15.0534"
         id="path1604" />
      <path
         d="m 283.02346,492.35243 h 5.43594 v 32.26772 h -5.43594 z"
         style="font-style:normal;font-variant:normal;font-weight:600;font-stretch:normal;font-family:Montserrat;-inkscape-font-specification:'Montserrat Semi-Bold';fill:#541ec5;fill-opacity:1;stroke-width:15.0534"
         id="path1606" />
      <path
         d="m 295.59134,492.35243 h 5.43593 v 32.26772 h -5.43593 z"
         style="font-style:normal;font-variant:normal;font-weight:600;font-stretch:normal;font-family:Montserrat;-inkscape-font-specification:'Montserrat Semi-Bold';fill:#541ec5;fill-opacity:1;stroke-width:15.0534"
         id="path1608" />
      <path
         d="m 318.59621,524.92457 q -3.52249,0 -6.34918,-1.52207 -2.82669,-1.52206 -4.43572,-4.21828 -1.56555,-2.73972 -1.56555,-6.17523 0,-3.43551 1.56555,-6.13174 1.60903,-2.69622 4.43572,-4.21828 2.82669,-1.52206 6.34918,-1.52206 3.56597,0 6.39266,1.52206 2.82669,1.52206 4.39224,4.21828 1.60903,2.69623 1.60903,6.13174 0,3.43551 -1.60903,6.17523 -1.56555,2.69622 -4.39224,4.21828 -2.82669,1.52207 -6.39266,1.52207 z m 0,-4.65317 q 3.00063,0 4.95757,-2.00042 1.95694,-2.00043 1.95694,-5.26199 0,-3.26156 -1.95694,-5.26199 -1.95694,-2.00042 -4.95757,-2.00042 -3.00064,0 -4.95758,2.00042 -1.91345,2.00043 -1.91345,5.26199 0,3.26156 1.91345,5.26199 1.95694,2.00042 4.95758,2.00042 z"
         style="font-style:normal;font-variant:normal;font-weight:600;font-stretch:normal;font-family:Montserrat;-inkscape-font-specification:'Montserrat Semi-Bold';fill:#541ec5;fill-opacity:1;stroke-width:15.0534"
         id="path1610" />
    </g>
  </g>
</svg>
