<?xml version="1.0" encoding="UTF-8" standalone="no"?>
<svg
   xmlns:dc="http://purl.org/dc/elements/1.1/"
   xmlns:cc="http://creativecommons.org/ns#"
   xmlns:rdf="http://www.w3.org/1999/02/22-rdf-syntax-ns#"
   xmlns:svg="http://www.w3.org/2000/svg"
   xmlns="http://www.w3.org/2000/svg"
   xmlns:sodipodi="http://sodipodi.sourceforge.net/DTD/sodipodi-0.dtd"
   xmlns:inkscape="http://www.inkscape.org/namespaces/inkscape"
   version="1.1"
   id="Calque_1"
   x="0px"
   y="0px"
   viewBox="-357.972 -232.816 798.151 386.99"
   enable-background="new -357.972 -232.816 798.151 386.99"
   xml:space="preserve"
   sodipodi:docname="coding-rights.svg"
   inkscape:version="1.0.2-2 (e86c870879, 2021-01-15)"><metadata
   id="metadata87"><rdf:RDF><cc:Work
       rdf:about=""><dc:format>image/svg+xml</dc:format><dc:type
         rdf:resource="http://purl.org/dc/dcmitype/StillImage" /></cc:Work></rdf:RDF></metadata><defs
   id="defs85" /><sodipodi:namedview
   pagecolor="#ffffff"
   bordercolor="#666666"
   borderopacity="1"
   objecttolerance="10"
   gridtolerance="10"
   guidetolerance="10"
   inkscape:pageopacity="0"
   inkscape:pageshadow="2"
   inkscape:window-width="1920"
   inkscape:window-height="1027"
   id="namedview83"
   showgrid="false"
   inkscape:zoom="0.62958012"
   inkscape:cx="273.7851"
   inkscape:cy="299.05832"
   inkscape:window-x="-8"
   inkscape:window-y="-8"
   inkscape:window-maximized="1"
   inkscape:current-layer="g80" />
<g
   id="g80">
	<polygon
   fill="#2a2151"
   points="-188.677,-208.613 -212.847,-208.613 -212.847,-184.483 -212.847,-160.28 -212.847,-136.077 -212.847,-111.894 -212.847,-87.744 -188.677,-87.744 -188.677,-111.894 -188.677,-136.077 -188.677,-160.28 -188.677,-184.483 "
   id="polygon2"
   style="fill:#541ec5;fill-opacity:1" />
	<polygon
   fill="#2a2151"
   points="-140.284,-232.816 -164.466,-232.816 -188.677,-232.816 -188.677,-208.613 -164.466,-208.613 -140.284,-208.613 -116.088,-208.613 -116.088,-232.816 "
   id="polygon4"
   style="fill:#541ec5;fill-opacity:1" />
	<polygon
   fill="#2a2151"
   points="-116.088,-87.744 -91.918,-87.744 -91.918,-111.894 -91.918,-136.077 -91.918,-160.28 -91.918,-184.483 -91.918,-208.613 -116.088,-208.613 -116.088,-184.483 -116.088,-160.28 -116.088,-136.077 -116.088,-111.894 "
   id="polygon6"
   style="fill:#541ec5;fill-opacity:1" />
	<polygon
   fill="#2a2151"
   points="-188.677,-87.744 -188.677,-63.541 -164.466,-63.541 -140.284,-63.541 -116.088,-63.541 -116.088,-87.744 -140.284,-87.744 -164.466,-87.744 "
   id="polygon8"
   style="fill:#541ec5;fill-opacity:1" />
	<rect
   x="-19.355"
   y="9.0500002"
   fill="#2a2151"
   width="24.183001"
   height="24.169001"
   id="rect10"
   style="fill:#541ec5;fill-opacity:1" />
	<polygon
   fill="#2a2151"
   points="-91.918,9.05 -67.722,9.05 -43.525,9.05 -19.355,9.05 -19.355,-15.127 -43.525,-15.127 -67.722,-15.127 -91.918,-15.127 "
   id="polygon12"
   style="fill:#541ec5;fill-opacity:1" />
	<polygon
   fill="#2a2151"
   points="-116.088,105.795 -116.088,129.964 -91.918,129.964 -91.918,105.795 -91.918,81.586 -91.918,57.416 -91.918,33.205 -91.918,9.05 -116.088,9.05 -116.088,33.205 -116.088,57.416 -116.088,81.586 "
   id="polygon14"
   style="fill:#541ec5;fill-opacity:1" />
	<polygon
   fill="#2a2151"
   points="-19.355,57.416 -43.525,57.416 -43.525,81.586 -19.355,81.586 -19.355,105.795 -19.355,129.964 4.828,129.964 4.828,105.795 4.828,81.586 4.828,57.416 "
   id="polygon16"
   style="fill:#541ec5;fill-opacity:1" />
	<polygon
   fill="#2a2151"
   points="-19.355,129.964 -43.525,129.964 -67.722,129.964 -91.918,129.964 -91.918,154.175 -67.722,154.175 -43.525,154.175 -19.355,154.175 "
   id="polygon18"
   style="fill:#541ec5;fill-opacity:1" />
	<polygon
   fill="#2a2151"
   points="415.983,-87.744 391.8,-87.744 367.589,-87.744 343.419,-87.744 343.419,-63.541 367.589,-63.541 391.8,-63.541 415.983,-63.541 "
   id="polygon20"
   style="fill:#541ec5;fill-opacity:1" />
	<polygon
   fill="#2a2151"
   points="415.983,-160.28 391.8,-160.28 391.8,-136.077 415.983,-136.077 415.983,-111.894 415.983,-87.744 440.178,-87.744 440.178,-111.894 440.178,-136.077 440.178,-160.28 "
   id="polygon22"
   style="fill:#541ec5;fill-opacity:1" />
	<polygon
   fill="#2a2151"
   points="28.998,-87.744 53.195,-87.744 53.195,-111.894 53.195,-136.077 53.195,-160.28 53.195,-184.483 53.195,-208.613 28.998,-208.613 28.998,-184.483 28.998,-160.28 28.998,-136.077 28.998,-111.894 "
   id="polygon24"
   style="fill:#541ec5;fill-opacity:1" />
	<polygon
   fill="#2a2151"
   points="319.25,-111.894 319.25,-87.744 343.419,-87.744 343.419,-111.894 343.419,-136.077 343.419,-160.28 343.419,-184.483 343.419,-208.613 319.25,-208.613 319.25,-184.483 319.25,-160.28 319.25,-136.077 "
   id="polygon26"
   style="fill:#541ec5;fill-opacity:1" />
	<polygon
   fill="#2a2151"
   points="343.419,-208.613 367.589,-208.613 391.8,-208.613 415.983,-208.613 415.983,-232.816 391.8,-232.816 367.589,-232.816 343.419,-232.816 "
   id="polygon28"
   style="fill:#541ec5;fill-opacity:1" />
	<rect
   x="415.983"
   y="-208.61301"
   fill="#2a2151"
   width="24.195999"
   height="24.143"
   id="rect30"
   style="fill:#541ec5;fill-opacity:1" />
	<polygon
   fill="#2a2151"
   points="174.111,-15.127 174.111,9.05 198.32,9.05 222.49,9.05 222.49,33.205 222.49,57.416 222.49,81.586 222.49,105.795 222.49,129.964 222.49,154.175 246.7,154.175 246.7,129.964 246.7,105.795 246.7,81.586 246.7,57.416 246.7,33.205 246.7,9.05 270.856,9.05 295.053,9.05 295.053,-15.127 270.856,-15.127 246.7,-15.127 222.49,-15.127 198.32,-15.127 "
   id="polygon32"
   style="fill:#541ec5;fill-opacity:1" />
	<polygon
   fill="#2a2151"
   points="101.575,57.416 77.378,57.416 53.195,57.416 53.195,33.205 53.195,9.05 53.195,-15.127 28.998,-15.127 28.998,9.05 28.998,33.205 28.998,57.416 28.998,81.586 28.998,105.795 28.998,129.964 28.998,154.175 53.195,154.175 53.195,129.964 53.195,105.795 53.195,81.586 77.378,81.586 101.575,81.586 125.731,81.586 125.731,105.795 125.731,129.964 125.731,154.175 149.954,154.175 149.954,129.964 149.954,105.795 149.954,81.586 149.954,57.416 149.954,33.205 149.954,9.05 149.954,-15.127 125.731,-15.127 125.731,9.05 125.731,33.205 125.731,57.416 "
   id="polygon34"
   style="fill:#541ec5;fill-opacity:1" />
	<polygon
   fill="#2a2151"
   points="174.111,-232.816 174.111,-208.613 174.111,-184.483 174.111,-160.28 174.111,-136.077 174.111,-111.894 174.111,-87.744 174.111,-63.541 198.32,-63.541 198.32,-87.744 198.32,-111.894 198.32,-136.077 198.32,-160.28 222.49,-160.28 222.49,-184.483 222.49,-208.613 198.32,-208.613 198.32,-232.816 "
   id="polygon36"
   style="fill:#541ec5;fill-opacity:1" />
	<polygon
   fill="#2a2151"
   points="-43.525,-87.744 -43.525,-111.894 -43.525,-136.077 -43.525,-160.28 -43.525,-184.483 -43.525,-208.613 -19.355,-208.613 4.828,-208.613 28.998,-208.613 28.998,-232.816 4.828,-232.816 -19.355,-232.816 -43.525,-232.816 -67.722,-232.816 -67.722,-208.613 -67.722,-184.483 -67.722,-160.28 -67.722,-136.077 -67.722,-111.894 -67.722,-87.744 -67.722,-63.541 -43.525,-63.541 -19.355,-63.541 4.828,-63.541 28.998,-63.541 28.998,-87.744 4.828,-87.744 -19.355,-87.744 "
   id="polygon38"
   style="fill:#541ec5;fill-opacity:1" />
	<rect
   x="222.49001"
   y="-160.28"
   fill="#2a2151"
   width="24.224001"
   height="24.202"
   id="rect40"
   style="fill:#541ec5;fill-opacity:1" />
	<polygon
   fill="#2a2151"
   points="101.575,-208.613 101.575,-184.483 101.575,-160.28 101.575,-136.077 101.575,-111.894 101.575,-87.744 77.378,-87.744 77.378,-63.541 101.575,-63.541 125.731,-63.541 149.954,-63.541 149.954,-87.744 125.731,-87.744 125.731,-111.894 125.731,-136.077 125.731,-160.28 125.731,-184.483 125.731,-208.613 149.954,-208.613 149.954,-232.816 125.731,-232.816 101.575,-232.816 77.378,-232.816 77.378,-208.613 "
   id="polygon42"
   style="fill:#541ec5;fill-opacity:1" />
	<polygon
   fill="#2a2151"
   points="270.856,-136.077 246.7,-136.077 246.7,-111.894 246.7,-87.744 270.856,-87.744 270.856,-63.541 295.053,-63.541 295.053,-87.744 295.053,-111.894 295.053,-136.077 295.053,-160.28 295.053,-184.483 295.053,-208.613 295.053,-232.816 270.856,-232.816 270.856,-208.613 270.856,-184.483 270.856,-160.28 "
   id="polygon44"
   style="fill:#541ec5;fill-opacity:1" />
	<polygon
   fill="#2a2151"
   points="-188.677,9.05 -188.677,33.205 -188.677,57.416 -188.677,81.586 -188.677,105.795 -188.677,129.964 -212.847,129.964 -212.847,154.175 -188.677,154.175 -164.466,154.175 -140.284,154.175 -140.284,129.964 -164.466,129.964 -164.466,105.795 -164.466,81.586 -164.466,57.416 -164.466,33.205 -164.466,9.05 -140.284,9.05 -140.284,-15.127 -164.466,-15.127 -188.677,-15.127 -212.847,-15.127 -212.847,9.05 "
   id="polygon46"
   style="fill:#541ec5;fill-opacity:1" />
	<polygon
   fill="#2a2151"
   points="415.983,57.416 391.8,57.416 367.589,57.416 343.419,57.416 343.419,81.586 367.589,81.586 391.8,81.586 415.983,81.586 "
   id="polygon48"
   style="fill:#541ec5;fill-opacity:1" />
	<polygon
   fill="#2a2151"
   points="343.419,33.205 343.419,9.05 319.25,9.05 319.25,33.205 319.25,57.416 343.419,57.416 "
   id="polygon50"
   style="fill:#541ec5;fill-opacity:1" />
	<rect
   x="415.983"
   y="9.0500002"
   fill="#2a2151"
   width="24.195999"
   height="24.169001"
   id="rect52"
   style="fill:#541ec5;fill-opacity:1" />
	<polygon
   fill="#2a2151"
   points="440.178,81.586 415.983,81.586 415.983,105.795 415.983,129.964 440.178,129.964 440.178,105.795 "
   id="polygon54"
   style="fill:#541ec5;fill-opacity:1" />
	<polygon
   fill="#2a2151"
   points="343.419,9.05 367.589,9.05 391.8,9.05 415.983,9.05 415.983,-15.127 391.8,-15.127 367.589,-15.127 343.419,-15.127 "
   id="polygon56"
   style="fill:#541ec5;fill-opacity:1" />
	<polygon
   fill="#2a2151"
   points="367.589,154.175 391.8,154.175 415.983,154.175 415.983,129.964 391.8,129.964 367.589,129.964 343.419,129.964 343.419,154.175 "
   id="polygon58"
   style="fill:#541ec5;fill-opacity:1" />
	<rect
   x="319.25"
   y="105.795"
   fill="#2a2151"
   width="24.195999"
   height="24.169001"
   id="rect60"
   style="fill:#541ec5;fill-opacity:1" />
	<rect
   x="-261.21301"
   y="-111.894"
   fill="#2a2151"
   width="24.169001"
   height="24.15"
   id="rect62"
   style="fill:#541ec5;fill-opacity:1" />
	<rect
   x="-261.21301"
   y="-208.61301"
   fill="#2a2151"
   width="24.169001"
   height="24.143"
   id="rect64"
   style="fill:#541ec5;fill-opacity:1" />
	<polygon
   fill="#2a2151"
   points="-333.749,-208.613 -309.594,-208.613 -285.436,-208.613 -261.213,-208.613 -261.213,-232.816 -285.436,-232.816 -309.594,-232.816 -333.749,-232.816 "
   id="polygon66"
   style="fill:#541ec5;fill-opacity:1" />
	<polygon
   fill="#2a2151"
   points="-333.749,9.05 -309.594,9.05 -285.436,9.05 -261.213,9.05 -261.213,-15.127 -285.436,-15.127 -309.594,-15.127 -333.749,-15.127 -357.972,-15.127 -357.972,9.05 -357.972,33.205 -357.972,57.416 -357.972,81.586 -357.972,105.795 -357.972,129.964 -357.972,154.175 -333.749,154.175 -333.749,129.964 -333.749,105.795 -333.749,81.586 -309.594,81.586 -309.594,105.795 -285.436,105.795 -285.436,81.586 -261.213,81.586 -261.213,57.416 -285.436,57.416 -309.594,57.416 -333.749,57.416 -333.749,33.205 "
   id="polygon68"
   style="fill:#541ec5;fill-opacity:1" />
	<polygon
   fill="#2a2151"
   points="-237.044,33.205 -237.044,9.05 -261.213,9.05 -261.213,33.205 -261.213,57.416 -237.044,57.416 "
   id="polygon70"
   style="fill:#541ec5;fill-opacity:1" />
	<polygon
   fill="#2a2151"
   points="-357.972,-111.894 -357.972,-87.744 -333.749,-87.744 -333.749,-111.894 -333.749,-136.077 -333.749,-160.28 -333.749,-184.483 -333.749,-208.613 -357.972,-208.613 -357.972,-184.483 -357.972,-160.28 -357.972,-136.077 "
   id="polygon72"
   style="fill:#541ec5;fill-opacity:1" />
	<polygon
   fill="#2a2151"
   points="-261.213,-87.744 -285.436,-87.744 -309.594,-87.744 -333.749,-87.744 -333.749,-63.541 -309.594,-63.541 -285.436,-63.541 -261.213,-63.541 "
   id="polygon74"
   style="fill:#541ec5;fill-opacity:1" />
	<rect
   x="-261.21301"
   y="129.964"
   fill="#2a2151"
   width="24.169001"
   height="24.211"
   id="rect76"
   style="fill:#541ec5;fill-opacity:1" />
	<rect
   x="-285.436"
   y="105.795"
   fill="#2a2151"
   width="24.223"
   height="24.169001"
   id="rect78"
   style="fill:#541ec5;fill-opacity:1" />
</g>
</svg>
