<?xml version="1.0" encoding="utf-8"?>
<!-- Generator: Adobe Illustrator 24.1.0, SVG Export Plug-In . SVG Version: 6.00 Build 0)  -->
<svg version="1.1" id="Layer_1" xmlns="http://www.w3.org/2000/svg" xmlns:xlink="http://www.w3.org/1999/xlink" x="0px" y="0px"
	 viewBox="0 0 360 165" style="enable-background:new 0 0 360 165;" xml:space="preserve">
<style type="text/css">
	.st0{fill:url(#SVGID_1_);}
	.st1{fill:url(#SVGID_2_);}
	.st2{fill:url(#SVGID_3_);}
	.st3{fill:url(#SVGID_4_);}
	.st4{fill:url(#SVGID_5_);}
	.st5{fill:url(#SVGID_6_);}
	.st6{fill:url(#SVGID_7_);}
	.st7{fill:url(#SVGID_8_);}
	.st8{fill:url(#SVGID_9_);}
	.st9{fill:url(#SVGID_10_);}
	.st10{fill:url(#SVGID_11_);}
	.st11{fill:url(#SVGID_12_);}
	.st12{fill:url(#SVGID_13_);}
	.st13{fill:url(#SVGID_14_);}
	.st14{fill:url(#SVGID_15_);}
	.st15{fill:url(#SVGID_16_);}
	.st16{fill:url(#SVGID_17_);}
	.st17{fill:url(#SVGID_18_);}
	.st18{fill:url(#SVGID_19_);}
	.st19{fill:url(#SVGID_20_);}
	.st20{fill:url(#SVGID_21_);}
	.st21{fill:#FFFFFF;}
	.st22{clip-path:url(#SVGID_23_);fill:#E5E5E5;}
	.st23{clip-path:url(#SVGID_25_);fill:#E5E5E5;}
</style>
<g>
	
		<linearGradient id="SVGID_1_" gradientUnits="userSpaceOnUse" x1="28.811" y1="104.6947" x2="65.0461" y2="-85.0064" gradientTransform="matrix(1 0 0 -1 0 166)">
		<stop  offset="0" style="stop-color:#EE634F"/>
		<stop  offset="0.4949" style="stop-color:#E9B157"/>
		<stop  offset="1" style="stop-color:#15A689"/>
	</linearGradient>
	<path class="st0" d="M40.35,77.27h-6.11l-9.66-16.82l-0.11,0.04v16.78h-6.14V50.88h6.14l9.66,16.82l0.11-0.04V50.88h6.11V77.27z"/>
	
		<linearGradient id="SVGID_2_" gradientUnits="userSpaceOnUse" x1="58.7425" y1="110.412" x2="94.9777" y2="-79.2891" gradientTransform="matrix(1 0 0 -1 0 166)">
		<stop  offset="0" style="stop-color:#EE634F"/>
		<stop  offset="0.4949" style="stop-color:#E9B157"/>
		<stop  offset="1" style="stop-color:#15A689"/>
	</linearGradient>
	<path class="st1" d="M68.3,55.6h-6.96v21.68H55.2V55.6h-6.91v-4.71H68.3V55.6z"/>
	
		<linearGradient id="SVGID_3_" gradientUnits="userSpaceOnUse" x1="83.3896" y1="115.1198" x2="119.6247" y2="-74.5813" gradientTransform="matrix(1 0 0 -1 0 166)">
		<stop  offset="0" style="stop-color:#EE634F"/>
		<stop  offset="0.4949" style="stop-color:#E9B157"/>
		<stop  offset="1" style="stop-color:#15A689"/>
	</linearGradient>
	<path class="st2" d="M93.22,65.98H82.87v6.58h12.2v4.71H76.72V50.88H95.1v4.71H82.87v5.67h10.35V65.98z"/>
	
		<linearGradient id="SVGID_4_" gradientUnits="userSpaceOnUse" x1="109.6772" y1="120.141" x2="145.9122" y2="-69.5601" gradientTransform="matrix(1 0 0 -1 0 166)">
		<stop  offset="0" style="stop-color:#EE634F"/>
		<stop  offset="0.4949" style="stop-color:#E9B157"/>
		<stop  offset="1" style="stop-color:#15A689"/>
	</linearGradient>
	<path class="st3" d="M109.92,67.16v10.11h-6.14V50.88h10.15c3.06,0,5.48,0.71,7.27,2.12c1.79,1.41,2.68,3.35,2.68,5.8
		c0,1.37-0.36,2.54-1.08,3.52s-1.78,1.78-3.18,2.39c1.62,0.46,2.78,1.22,3.49,2.29s1.06,2.4,1.06,4v1.67c0,0.69,0.1,1.47,0.31,2.36
		c0.21,0.88,0.56,1.51,1.07,1.88v0.36h-6.31c-0.48-0.37-0.8-1.04-0.95-1.99c-0.15-0.95-0.23-1.84-0.23-2.65v-1.6
		c0-1.26-0.33-2.22-1-2.88c-0.66-0.66-1.64-1-2.92-1h-4.22V67.16z M109.92,62.45h4.04c1.23,0,2.18-0.28,2.83-0.84
		s0.98-1.37,0.98-2.42c0-1.08-0.34-1.94-1.01-2.6c-0.67-0.66-1.62-0.99-2.84-0.99h-4.01L109.92,62.45L109.92,62.45z"/>
	
		<linearGradient id="SVGID_5_" gradientUnits="userSpaceOnUse" x1="140.5829" y1="126.0444" x2="176.8179" y2="-63.6567" gradientTransform="matrix(1 0 0 -1 0 166)">
		<stop  offset="0" style="stop-color:#EE634F"/>
		<stop  offset="0.4949" style="stop-color:#E9B157"/>
		<stop  offset="1" style="stop-color:#15A689"/>
	</linearGradient>
	<path class="st4" d="M156.2,77.27h-6.11l-9.66-16.82l-0.11,0.04v16.78h-6.14V50.88h6.14l9.66,16.82l0.11-0.04V50.88h6.11V77.27z"/>
	
		<linearGradient id="SVGID_6_" gradientUnits="userSpaceOnUse" x1="169.7777" y1="131.6209" x2="206.0128" y2="-58.0802" gradientTransform="matrix(1 0 0 -1 0 166)">
		<stop  offset="0" style="stop-color:#EE634F"/>
		<stop  offset="0.4949" style="stop-color:#E9B157"/>
		<stop  offset="1" style="stop-color:#15A689"/>
	</linearGradient>
	<path class="st5" d="M182.75,65.98H172.4v6.58h12.2v4.71h-18.34V50.88h18.38v4.71H172.4v5.67h10.35V65.98z"/>
	
		<linearGradient id="SVGID_7_" gradientUnits="userSpaceOnUse" x1="197.442" y1="136.9051" x2="233.6771" y2="-52.796" gradientTransform="matrix(1 0 0 -1 0 166)">
		<stop  offset="0" style="stop-color:#EE634F"/>
		<stop  offset="0.4949" style="stop-color:#E9B157"/>
		<stop  offset="1" style="stop-color:#15A689"/>
	</linearGradient>
	<path class="st6" d="M212.06,55.6h-6.96v21.68h-6.14V55.6h-6.91v-4.71h20.01L212.06,55.6L212.06,55.6z"/>
</g>
<g>
	
		<linearGradient id="SVGID_8_" gradientUnits="userSpaceOnUse" x1="10.0715" y1="100.8278" x2="46.3065" y2="-88.8733" gradientTransform="matrix(1 0 0 -1 0 166)">
		<stop  offset="0" style="stop-color:#EE634F"/>
		<stop  offset="0.4949" style="stop-color:#E9B157"/>
		<stop  offset="1" style="stop-color:#15A689"/>
	</linearGradient>
	<path class="st7" d="M2.36,126.35V82.4h15.09c5.45,0,9.71,1.01,12.77,3.03s4.59,5.04,4.59,9.04c0,2.09-0.49,3.95-1.48,5.58
		c-0.99,1.63-2.51,2.86-4.56,3.68c2.58,0.58,4.48,1.76,5.71,3.52c1.23,1.76,1.84,3.79,1.84,6.08c0,4.29-1.44,7.53-4.32,9.72
		s-7,3.29-12.38,3.29L2.36,126.35L2.36,126.35z M12.59,100.72h5.07c2.31-0.04,4.04-0.49,5.19-1.34c1.15-0.86,1.72-2.11,1.72-3.76
		c0-1.87-0.58-3.23-1.75-4.09s-2.96-1.28-5.37-1.28h-4.86V100.72z M12.59,107.48v11.02h7.03c2.17,0,3.8-0.43,4.89-1.28
		s1.63-2.17,1.63-3.94c0-1.91-0.47-3.36-1.4-4.33c-0.94-0.98-2.45-1.46-4.54-1.46L12.59,107.48L12.59,107.48z"/>
	
		<linearGradient id="SVGID_9_" gradientUnits="userSpaceOnUse" x1="50.7461" y1="108.5971" x2="86.9812" y2="-81.104" gradientTransform="matrix(1 0 0 -1 0 166)">
		<stop  offset="0" style="stop-color:#EE634F"/>
		<stop  offset="0.4949" style="stop-color:#E9B157"/>
		<stop  offset="1" style="stop-color:#15A689"/>
	</linearGradient>
	<path class="st8" d="M78.39,108.33c0,5.41-1.72,9.87-5.15,13.39c-3.43,3.51-7.91,5.27-13.45,5.27c-5.57,0-10.09-1.76-13.55-5.27
		c-3.46-3.51-5.19-7.97-5.19-13.39v-7.91c0-5.39,1.73-9.85,5.18-13.37c3.45-3.52,7.95-5.28,13.51-5.28c5.51,0,10,1.76,13.46,5.28
		s5.19,7.98,5.19,13.37V108.33z M68.22,100.36c0-3.14-0.74-5.71-2.22-7.73c-1.48-2.01-3.57-3.02-6.26-3.02c-2.76,0-4.86,1-6.32,3
		s-2.19,4.58-2.19,7.74v7.97c0,3.18,0.74,5.78,2.22,7.79s3.6,3.02,6.35,3.02c2.68,0,4.75-1.01,6.22-3.02
		c1.47-2.01,2.2-4.61,2.2-7.79C68.22,108.32,68.22,100.36,68.22,100.36z"/>
	
		<linearGradient id="SVGID_10_" gradientUnits="userSpaceOnUse" x1="85.2125" y1="115.1806" x2="121.4475" y2="-74.5205" gradientTransform="matrix(1 0 0 -1 0 166)">
		<stop  offset="0" style="stop-color:#EE634F"/>
		<stop  offset="0.4949" style="stop-color:#E9B157"/>
		<stop  offset="1" style="stop-color:#15A689"/>
	</linearGradient>
	<path class="st9" d="M94.54,118.5h18.93v7.85H84.31V82.4h10.23C94.54,82.4,94.54,118.5,94.54,118.5z"/>
	
		<linearGradient id="SVGID_11_" gradientUnits="userSpaceOnUse" x1="112.3453" y1="120.3632" x2="148.5804" y2="-69.3378" gradientTransform="matrix(1 0 0 -1 0 166)">
		<stop  offset="0" style="stop-color:#EE634F"/>
		<stop  offset="0.4949" style="stop-color:#E9B157"/>
		<stop  offset="1" style="stop-color:#15A689"/>
	</linearGradient>
	<path class="st10" d="M128.65,126.35h-10.17V82.4h10.17V126.35z"/>
	
		<linearGradient id="SVGID_12_" gradientUnits="userSpaceOnUse" x1="144.2874" y1="126.4645" x2="180.5224" y2="-63.2365" gradientTransform="matrix(1 0 0 -1 0 166)">
		<stop  offset="0" style="stop-color:#EE634F"/>
		<stop  offset="0.4949" style="stop-color:#E9B157"/>
		<stop  offset="1" style="stop-color:#15A689"/>
	</linearGradient>
	<path class="st11" d="M152.01,114.42l0.3,1.6h0.18l0.3-1.48l8.72-32.14h10.69l-14.25,43.95h-11.02L132.75,82.4h10.65L152.01,114.42
		z"/>
	
		<linearGradient id="SVGID_13_" gradientUnits="userSpaceOnUse" x1="168.13" y1="131.0187" x2="204.365" y2="-58.6824" gradientTransform="matrix(1 0 0 -1 0 166)">
		<stop  offset="0" style="stop-color:#EE634F"/>
		<stop  offset="0.4949" style="stop-color:#E9B157"/>
		<stop  offset="1" style="stop-color:#15A689"/>
	</linearGradient>
	<path class="st12" d="M186.48,126.35H176.3V82.4h10.17L186.48,126.35L186.48,126.35z"/>
	
		<linearGradient id="SVGID_14_" gradientUnits="userSpaceOnUse" x1="192.6586" y1="135.704" x2="228.8936" y2="-53.9971" gradientTransform="matrix(1 0 0 -1 0 166)">
		<stop  offset="0" style="stop-color:#EE634F"/>
		<stop  offset="0.4949" style="stop-color:#E9B157"/>
		<stop  offset="1" style="stop-color:#15A689"/>
	</linearGradient>
	<path class="st13" d="M217.91,117.8h-13.85l-2.47,8.54h-10.26L205.5,82.4h10.96l14.22,43.95h-10.26L217.91,117.8z M206.32,109.96
		h9.33l-4.59-15.73h-0.18L206.32,109.96z"/>
</g>
<g>
	
		<linearGradient id="SVGID_15_" gradientUnits="userSpaceOnUse" x1="7.729" y1="100.6678" x2="43.9641" y2="-89.0333" gradientTransform="matrix(1 0 0 -1 0 166)">
		<stop  offset="0" style="stop-color:#EE634F"/>
		<stop  offset="0.4949" style="stop-color:#E9B157"/>
		<stop  offset="1" style="stop-color:#15A689"/>
	</linearGradient>
	<polygon class="st14" points="8.49,54.71 8.49,54.7 8.49,50.93 2.36,50.93 2.36,55.61 8.49,55.61 	"/>
	
		<linearGradient id="SVGID_16_" gradientUnits="userSpaceOnUse" x1="4.9712" y1="100.141" x2="41.2062" y2="-89.5601" gradientTransform="matrix(1 0 0 -1 0 166)">
		<stop  offset="0" style="stop-color:#EE634F"/>
		<stop  offset="0.4949" style="stop-color:#E9B157"/>
		<stop  offset="1" style="stop-color:#15A689"/>
	</linearGradient>
	<polygon class="st15" points="8.49,72.77 8.49,66.69 8.49,66.67 8.49,62.97 8.49,62.9 8.49,59.2 2.36,59.2 2.36,77.27 8.49,77.27 
		8.49,72.85 	"/>
</g>
<g>
	
		<linearGradient id="SVGID_17_" gradientUnits="userSpaceOnUse" x1="165.854" y1="130.584" x2="202.0891" y2="-59.1171" gradientTransform="matrix(1 0 0 -1 0 166)">
		<stop  offset="0" style="stop-color:#EE634F"/>
		<stop  offset="0.4949" style="stop-color:#E9B157"/>
		<stop  offset="1" style="stop-color:#15A689"/>
	</linearGradient>
	<path class="st16" d="M188.64,146.82h-3.59v-3.02h3.59V146.82z"/>
	
		<linearGradient id="SVGID_18_" gradientUnits="userSpaceOnUse" x1="177.4223" y1="132.7937" x2="213.6573" y2="-56.9074" gradientTransform="matrix(1 0 0 -1 0 166)">
		<stop  offset="0" style="stop-color:#EE634F"/>
		<stop  offset="0.4949" style="stop-color:#E9B157"/>
		<stop  offset="1" style="stop-color:#15A689"/>
	</linearGradient>
	<path class="st17" d="M204.22,140.47c0,1.91-0.6,3.48-1.81,4.72c-1.21,1.24-2.79,1.86-4.74,1.86c-1.96,0-3.56-0.62-4.78-1.86
		s-1.83-2.81-1.83-4.72v-2.79c0-1.9,0.61-3.47,1.83-4.71s2.8-1.86,4.76-1.86c1.94,0,3.53,0.62,4.75,1.86s1.83,2.81,1.83,4.71
		L204.22,140.47L204.22,140.47z M200.64,137.66c0-1.11-0.26-2.01-0.78-2.72s-1.26-1.06-2.21-1.06c-0.97,0-1.72,0.35-2.23,1.06
		c-0.51,0.71-0.77,1.62-0.77,2.73v2.81c0,1.12,0.26,2.04,0.78,2.75s1.27,1.06,2.24,1.06c0.94,0,1.67-0.35,2.19-1.06
		c0.52-0.71,0.78-1.62,0.78-2.75V137.66z"/>
	
		<linearGradient id="SVGID_19_" gradientUnits="userSpaceOnUse" x1="191.0848" y1="135.4033" x2="227.3198" y2="-54.2978" gradientTransform="matrix(1 0 0 -1 0 166)">
		<stop  offset="0" style="stop-color:#EE634F"/>
		<stop  offset="0.4949" style="stop-color:#E9B157"/>
		<stop  offset="1" style="stop-color:#15A689"/>
	</linearGradient>
	<path class="st18" d="M209.91,140.88v5.94h-3.61v-15.49h5.96c1.79,0,3.22,0.42,4.27,1.24c1.05,0.83,1.57,1.96,1.57,3.41
		c0,0.8-0.21,1.49-0.63,2.06c-0.42,0.57-1.04,1.04-1.87,1.41c0.95,0.27,1.63,0.72,2.05,1.35s0.62,1.41,0.62,2.35v0.98
		c0,0.4,0.06,0.87,0.18,1.38c0.12,0.52,0.33,0.89,0.63,1.11v0.21h-3.7c-0.28-0.22-0.47-0.61-0.56-1.17s-0.13-1.08-0.13-1.55v-0.94
		c0-0.74-0.19-1.3-0.58-1.69s-0.96-0.58-1.71-0.58h-2.49V140.88z M209.91,138.12h2.37c0.72,0,1.28-0.17,1.66-0.5s0.57-0.8,0.57-1.42
		c0-0.63-0.2-1.14-0.59-1.53s-0.95-0.58-1.67-0.58h-2.35L209.91,138.12L209.91,138.12z"/>
	
		<linearGradient id="SVGID_20_" gradientUnits="userSpaceOnUse" x1="205.4473" y1="138.1468" x2="241.6823" y2="-51.5543" gradientTransform="matrix(1 0 0 -1 0 166)">
		<stop  offset="0" style="stop-color:#EE634F"/>
		<stop  offset="0.4949" style="stop-color:#E9B157"/>
		<stop  offset="1" style="stop-color:#15A689"/>
	</linearGradient>
	<path class="st19" d="M232.93,144.68c-0.52,0.62-1.29,1.17-2.29,1.65c-1,0.47-2.26,0.71-3.77,0.71c-1.92,0-3.47-0.59-4.67-1.77
		c-1.19-1.18-1.79-2.71-1.79-4.59v-3.23c0-1.87,0.58-3.39,1.75-4.58s2.67-1.78,4.51-1.78c1.99,0,3.49,0.46,4.48,1.38
		c0.99,0.92,1.56,2.18,1.69,3.78l-0.02,0.06h-3.37c-0.12-0.82-0.39-1.43-0.79-1.84c-0.41-0.41-1.03-0.62-1.87-0.62
		s-1.51,0.33-2.02,0.99c-0.51,0.66-0.77,1.52-0.77,2.57v3.26c0,1.08,0.25,1.95,0.76,2.6c0.5,0.66,1.21,0.98,2.12,0.98
		c0.66,0,1.18-0.05,1.55-0.16c0.38-0.11,0.67-0.25,0.89-0.43v-2.45h-2.44v-2.38h6.04v5.85H232.93z"/>
</g>
<linearGradient id="SVGID_21_" gradientUnits="userSpaceOnUse" x1="270.9557" y1="-4.3808" x2="308.7335" y2="166.2859">
	<stop  offset="0" style="stop-color:#EE634F"/>
	<stop  offset="0.4949" style="stop-color:#E9B157"/>
	<stop  offset="1" style="stop-color:#15A689"/>
</linearGradient>
<path class="st20" d="M231.02,19.05l-3.6-1.74h-0.06l-0.07,0.22v6.6l3.54,3.42l0.02,0.21h0.17V19.05z M231.02,85.34V63.38h-0.19
	v0.49l-3.54,2.63v18.84H231.02z M231.02,89.29h-3.73v9.53l3.51,4.75h0.22V89.29z M237.12,19.87l-1.86,1.23l-1.87-0.9v92.57
	l0.24,0.84l3.22,5.32h0.27V19.87z M239.5,18.3v120.25l3.72,4.23l0.01,0.03V15.84L239.5,18.3z M249.34,12.52h-1.06l-2.67,1.76v134.6
	l3.6,9.22l0.07,0.17h0.06V12.52z M251.71,10.25v154.37l3.73-5.01V7.8L251.71,10.25z M261.39,3.88l-3.57,2.35v150.19l3.73-5.02V3.88
	H261.39z M267.66,2.95l-3.73,0.53v144.73l0.07-0.1l3.24,3.44h0.42V2.95z M273.59,2.1l-3.56,0.51v151.82h0.14l3.59-1.12V3.66
	L273.59,2.1z M276.14,25.17v127.4l3.73,1.46V28.65L276.14,25.17z M285.98,33.79l-1.87-1.18l-1.86-1.74v124.08l3.59,1.4h0.14V33.79z
	 M290.22,36.45l-1.87-1.17v129.39l0.03,0.09l3.7-6.35V35.92L290.22,36.45z M298.19,154.43V34.67l-0.12-0.08h-1.26l-2.35,0.66v119.18
	H298.19z M300.57,154.43h3.73V38.87l-3.44-2.36h-0.29V154.43z M307.85,41.3h-1.18v114.66l3.73,2.15V43.06L307.85,41.3z
	 M315.94,46.86l-3.16-2.16v86.49l3.73-3.66V46.86H315.94z M318.89,47.06v78.13l0.13-0.13l3.6-0.82V47.06H318.89z M324.99,47.06
	v76.63l3.73-0.86V47.06H324.99z M334.61,54.46l-3.51-3.26v71.09l1.87-0.43h1.86V55.17L334.61,54.46z M337.21,81.61h3.73v40.2h-3.73
	V81.61z M343.31,81.61h3.73v40.2h-3.73V81.61z M353.15,81.61h-3.73v40.25h0.24l3.23,1.87h0.26V81.61z M355.53,94.08v31.45l3.73,2.57
	V94.08H355.53z"/>
<g>
	<rect x="257.46" y="50.42" class="st21" width="17.8" height="13.46"/>
	<path class="st21" d="M312.78,93.03C310.67,90.01,307.42,88,303,87c3.52-1.41,6.12-3.52,7.81-6.31s2.54-5.98,2.54-9.57
		c0-6.86-2.62-12.03-7.86-15.5c-5.25-3.47-12.54-5.2-21.89-5.2h-3.55v13.46h3.55c4.14,0,7.21,0.73,9.21,2.2c2,1.47,3,3.8,3,7.01
		c0,2.83-0.98,4.98-2.95,6.44c-1.97,1.47-4.93,2.23-8.9,2.3h-8.7v-0.01v-7.75h-17.8v51.69h15.21h2.59h12.08
		c9.21,0,16.28-1.88,21.22-5.64c4.93-3.76,7.4-9.31,7.4-16.66C315.94,99.52,314.88,96.05,312.78,93.03z M295.72,110.1
		c-1.86,1.47-4.66,2.2-8.38,2.2h-12.08V93.42h13.05c3.59,0,6.18,0.84,7.79,2.51c1.61,1.67,2.41,4.15,2.41,7.42
		C298.51,106.39,297.58,108.64,295.72,110.1z"/>
</g>
<g>
	<g>
		<g>
			<defs>
				<rect id="SVGID_22_" x="273.67" y="112.44" width="6.37" height="13.32"/>
			</defs>
			<clipPath id="SVGID_23_">
				<use xlink:href="#SVGID_22_"  style="overflow:visible;"/>
			</clipPath>
			<rect x="273.67" y="112.44" class="st22" width="6.37" height="13.32"/>
		</g>
	</g>
</g>
<g>
	<g>
		<g>
			<defs>
				<rect id="SVGID_24_" x="273.67" y="81.87" width="6.37" height="11.45"/>
			</defs>
			<clipPath id="SVGID_25_">
				<use xlink:href="#SVGID_24_"  style="overflow:visible;"/>
			</clipPath>
			<rect x="273.67" y="81.87" class="st23" width="6.37" height="11.45"/>
		</g>
	</g>
</g>
</svg>
